<?xml version="1.0" encoding="iso-8859-1"?>
<!-- Generator: Adobe Illustrator 19.2.0, SVG Export Plug-In . SVG Version: 6.00 Build 0)  -->
<svg version="1.1" xmlns="http://www.w3.org/2000/svg" xmlns:xlink="http://www.w3.org/1999/xlink" x="0px" y="0px"
	 viewBox="0 0 77.215 77.43" style="enable-background:new 0 0 77.215 77.43;" xml:space="preserve">
<g id="City_x5F_of_x5F_Montreal">
	<path style="fill-rule:evenodd;clip-rule:evenodd; fill:red;" d="M38.426,5.594c0.598-0.316,0.955-0.931,1.403-1.402
		c0.446-0.47,0.883-0.958,1.453-1.303c1.733-1.592,4.013-2.54,6.964-2.806c2.912-0.262,5.805,0.646,7.715,1.904
		c2.822,1.858,5.203,4.673,5.812,8.768c0.208,1.398,0.064,2.845,0.1,4.458c0.66,0.198,1.57,0.051,2.555,0.051
		c2.749,0,4.891,0.698,6.613,1.753c2.34,1.435,3.978,3.387,5.16,5.963c1.19,2.593,1.344,6.329,0.301,9.318
		c-0.668,1.914-1.929,3.67-3.357,5.01c-0.36,0.338-1.395,0.998-1.402,1.353c-0.007,0.329,1.065,1.088,1.402,1.403
		c2.345,2.187,4.23,5.386,4.059,9.97c-0.061,1.628-0.527,3.207-1.103,4.459c-1.661,3.615-4.853,6.537-9.318,7.515
		c-0.807,0.177-1.646,0.251-2.555,0.251c-0.819,0-1.671-0.15-2.505-0.051c-0.212,0.722-0.004,1.468,0,2.155
		c0.028,5.334-2.646,9.048-5.962,11.122c-2.02,1.263-4.762,2.153-7.765,1.903c-2.959-0.246-5.037-1.368-6.914-2.806
		c-0.436-0.342-0.892-0.829-1.403-1.402c-0.277-0.312-0.947-1.392-1.352-1.403c-0.407-0.012-0.932,1.008-1.353,1.453
		c-2.142,2.265-5.342,4.284-9.77,4.108c-4.985-0.199-8.446-2.827-10.471-6.213c-1.384-2.314-2.258-5.261-1.753-9.017
		c-0.689-0.265-1.395-0.021-2.054,0c-2.273,0.071-4.127-0.394-5.761-1.152c-2.308-1.071-4.437-2.85-5.411-5.16
		c-0.318-0.755-0.829-1.649-1.102-2.505c-1.29-4.051-0.285-8.348,1.503-11.323c0.798-1.328,2.039-2.157,3.156-3.256
		c-0.363-0.731-1.115-1.107-1.653-1.604c-1.342-1.238-2.406-3.195-3.056-5.16c-1.385-4.186-0.204-8.758,1.804-11.674
		c1.688-2.451,4.727-4.496,8.417-4.96c1.307-0.164,2.658-0.061,4.158,0c0.134-1.157-0.098-2.202-0.05-3.206
		c0.147-3.122,1.35-5.481,2.906-7.365c2.118-2.565,5.178-4.399,9.168-4.709c2.748-0.214,5.121,0.619,6.914,1.604
		c0.906,0.497,1.723,1.173,2.455,1.803C37.139,4.101,37.633,4.992,38.426,5.594z M72.043,23.681
		c-1.308-2.302-3.905-4.275-7.365-4.358c-2.842-0.069-4.951,0.95-6.413,2.354c-0.406,0.39-1.242,1.019-1.353,1.602
		c-0.13,0.687,0.224,1.164,0.2,1.954c-0.081,2.687-2.155,4.539-4.559,4.76c-3.276,0.301-5.94-2.392-5.361-5.962
		c0.353-2.172,2.112-3.944,4.759-4.008c0.646-0.016,1.305,0.238,1.854,0.15c0.558-0.09,1.268-1.007,1.553-1.303
		c1.356-1.412,2.575-3.452,2.555-6.112c-0.031-4.085-2.57-6.984-5.711-8.116c-0.981-0.355-2.412-0.639-3.607-0.552
		c-3.505,0.258-5.828,2.109-7.114,4.66c-0.76,1.506-0.952,3.303-0.952,5.611c0,5.465-0.019,11.118-0.1,16.182
		c-0.019,1.154-0.048,2.287,0.2,3.106c0.359,1.186,1.329,2.417,2.906,2.806c0.948,0.233,2.256,0.093,3.457,0.15
		c3.684,0.175,7.323,0,10.822,0c2.275,0,4.763,0.12,6.914,0c2.27-0.127,3.941-0.915,5.26-2.005
		C72.935,32.542,74.103,27.307,72.043,23.681z M25.15,4.442c-3.248,0.972-6.287,4.092-6.263,8.267
		c0.016,2.659,1.16,4.743,2.505,6.162c0.363,0.383,1.005,1.242,1.603,1.303c0.281,0.027,0.561-0.113,0.802-0.15
		c1.123-0.176,2.173,0.035,2.955,0.4c1.884,0.879,3.599,3.425,2.555,6.312c-0.36,0.996-1.002,1.741-1.703,2.255
		c-3.345,2.446-7.845-0.047-7.966-3.758c-0.023-0.709,0.355-1.118,0.251-1.903c-0.108-0.819-1.054-0.969-1.453-1.704
		c-1.566-1.493-3.81-2.491-6.513-2.304c-4.87,0.337-8.339,4.221-8.116,9.168c0.126,2.783,1.671,4.953,3.357,6.212
		c0.913,0.682,1.827,1.315,3.156,1.604c1.335,0.29,2.935,0.15,4.659,0.15c4.364,0,9.195,0.05,13.828,0.05
		c1.602,0,3.255,0.165,4.559-0.15c1.206-0.291,2.249-1.224,2.655-2.404c0.413-1.199,0.201-3.638,0.201-5.561
		c0-3.877,0.05-7.507,0.05-11.172c0-1.881,0.17-3.78,0-5.661c-0.218-2.414-1.649-4.354-3.156-5.512
		c-1.602-1.23-3.74-2.21-6.413-1.854C26.243,4.279,25.669,4.288,25.15,4.442z M8.416,41.667C5.91,42.99,3.791,45.64,3.857,49.432
		c0.028,1.636,0.564,3.212,1.253,4.359c0.709,1.182,1.763,2.251,2.705,2.905c1.604,1.113,4.621,1.753,7.064,1.002
		c1.644-0.505,2.898-1.395,4.008-2.505c0.292-0.292,0.946-0.776,1.002-1.202c0.073-0.554-0.2-1.192-0.2-1.704
		c0-2.179,1.274-3.786,2.755-4.509c1.153-0.562,3.048-0.6,4.259-0.05c1.463,0.664,2.995,2.244,2.956,4.659
		c-0.045,2.783-2.297,4.941-5.06,5.01c-0.855,0.021-1.077-0.363-1.804-0.25c-0.398,0.062-0.802,0.652-1.102,0.952
		c-1.132,1.132-1.926,2.24-2.455,3.857c-0.844,2.581-0.191,5.089,0.751,6.814c0.943,1.728,2.434,3.141,4.458,3.908
		c2.41,0.912,4.977,0.522,6.964-0.351c2.05-0.902,3.126-2.3,4.058-4.31c0.909-1.96,0.702-4.845,0.702-7.715c0-4.22,0-8.338,0-12.575
		c0-1.306,0.251-3.125-0.05-4.158c-0.317-1.088-1.413-2.18-2.656-2.556c-1.335-0.403-3.669-0.2-5.511-0.2
		c-3.837,0-7.464,0.108-11.072-0.05c-1.872-0.082-4.13-0.081-5.611,0.05C10.212,40.909,9.18,41.264,8.416,41.667z M40.931,42.969
		c-0.612,1.201-0.501,2.979-0.501,4.859c0,3.96-0.05,7.695-0.05,11.474c0,2.677-0.208,5.325,0.3,7.415
		c0.517,2.122,1.713,3.845,3.006,4.859c1.686,1.322,4.314,2.138,7.064,1.604c2.331-0.453,4.238-1.893,5.361-3.607
		c1.034-1.58,2.052-4.406,1.303-7.165c-0.516-1.899-1.407-3.009-2.555-4.158c-0.338-0.338-0.798-0.956-1.253-1.002
		c-0.595-0.06-1.206,0.201-1.754,0.201c-2.435-0.001-4.305-1.916-4.709-3.958c-0.528-2.67,1.032-4.798,2.656-5.611
		c3.57-1.788,7.344,0.896,7.264,4.459c-0.013,0.574-0.292,1.176-0.2,1.703c0.111,0.643,0.879,1.107,1.353,1.553
		c0.619,0.583,1.055,1.04,1.553,1.354c1.371,0.86,3.237,1.22,5.06,1.152c1.698-0.063,3.109-0.721,4.259-1.453
		c2.139-1.362,4.062-4.098,4.058-7.314c-0.003-2.083-0.896-4.05-2.004-5.361c-1.104-1.308-2.516-2.508-4.459-2.905
		c-1.702-0.348-3.922-0.109-5.711-0.101c-5.609,0.027-11.57-0.012-17.535-0.05c-0.031,0.003-0.06,0.008-0.05,0.05
		C42.304,41.232,41.416,42.017,40.931,42.969z"/>
</g>
<g id="Layer_1">
</g>
</svg>
